# xmcd
# 
# Track frame offsets:
#     150
#     12226
#     25234
#     39151
#     53046
#     65998
#     80112
#     94040
#     107699
#     120133
#     132230
#     144539
#     155406
#     166582
# 
# Disc length: 2394
# 
# Revision: 0
# Processed by: cddbd v1.5.2PL0 Copyright (c) Steve Scherf et al.
# Submitted via: BonkEnc v1.0.15
# 
DISCID=ac09580e
DTITLE=Various Artist - a never-ending journey
DYEAR=2004
DGENRE=Blues
TTITLE0=J. B. LENOIR - I Sing Um The Way I Feel [alt. take]
TTITLE1=SKIP JAMES - I'm So Glad
TTITLE2=CHARLEY PATTON - Prayer Of Death - Part1
TTITLE3=TOMMY JOHNSON - Slidin' Delta
TTITLE4=BEALE STREET SHEIKS - Beale Town Bound
TTITLE5=ROSCO GORDON - Booted
TTITLE6=B. B. KING - Let Me Love You
TTITLE7=BOBBY RUSH - Get It On With Me
TTITLE8=PROF. JAMES EARLE HINES and HIS GOODWILL SINGERS - Precious Lord
TTITLE9=HOWLIN' WOLF - The Sun Is Rising
TTITLE10=ELMORE JAMES - Blues Before Sunrise
TTITLE11=JIMMY REED - Baby What You Want Me To Do
TTITLE12=HADDA BROOKS - Teenage Boogie
TTITLE13=CHARLES BROWN - Sail On Blues
EXTD=blues and soul records no.58
EXTT0=
EXTT1=
EXTT2=
EXTT3=
EXTT4=
EXTT5=
EXTT6=
EXTT7=
EXTT8=
EXTT9=
EXTT10=
EXTT11=
EXTT12=
EXTT13=
PLAYORDER=
